<mxfile host="app.diagrams.net" modified="2024-04-27T14:27:53.841Z" agent="Mozilla/5.0 (Windows NT 10.0; Win64; x64) AppleWebKit/537.36 (KHTML, like Gecko) Chrome/124.0.0.0 Safari/537.36" etag="QFE6LYtLkOgK7Q8SzZyS" version="24.2.1" type="device">
  <diagram name="Page-1" id="NzSmrDc0qjQBeIu6M57i">
    <mxGraphModel dx="2140" dy="653" grid="1" gridSize="10" guides="1" tooltips="1" connect="1" arrows="1" fold="1" page="1" pageScale="1" pageWidth="827" pageHeight="1169" math="0" shadow="0">
      <root>
        <mxCell id="0" />
        <mxCell id="1" parent="0" />
        <mxCell id="s_SscDxwih7RJKmsZcr1-1" value="Import data" style="rounded=1;whiteSpace=wrap;html=1;fillColor=#d5e8d4;strokeColor=#82b366;fontSize=12;fontStyle=1;strokeWidth=4;" vertex="1" parent="1">
          <mxGeometry x="-140" y="160" width="50" height="40" as="geometry" />
        </mxCell>
        <mxCell id="s_SscDxwih7RJKmsZcr1-23" value="" style="edgeStyle=orthogonalEdgeStyle;rounded=0;orthogonalLoop=1;jettySize=auto;html=1;fillColor=#dae8fc;strokeColor=#6c8ebf;" edge="1" parent="1" source="s_SscDxwih7RJKmsZcr1-2" target="s_SscDxwih7RJKmsZcr1-22">
          <mxGeometry relative="1" as="geometry" />
        </mxCell>
        <mxCell id="s_SscDxwih7RJKmsZcr1-2" value="Split into train_val and test data" style="rounded=1;whiteSpace=wrap;html=1;fillColor=#dae8fc;strokeColor=#6c8ebf;fontSize=12;fontStyle=1;strokeWidth=4;" vertex="1" parent="1">
          <mxGeometry x="-50" y="150" width="80" height="50" as="geometry" />
        </mxCell>
        <mxCell id="s_SscDxwih7RJKmsZcr1-27" value="" style="edgeStyle=orthogonalEdgeStyle;rounded=0;orthogonalLoop=1;jettySize=auto;html=1;entryX=0.5;entryY=0;entryDx=0;entryDy=0;exitX=0.5;exitY=1;exitDx=0;exitDy=0;fillColor=#ffe6cc;strokeColor=#d79b00;" edge="1" parent="1" source="s_SscDxwih7RJKmsZcr1-3" target="s_SscDxwih7RJKmsZcr1-26">
          <mxGeometry relative="1" as="geometry">
            <mxPoint x="205" y="243.88" as="sourcePoint" />
            <mxPoint x="150" y="383.88" as="targetPoint" />
            <Array as="points">
              <mxPoint x="175" y="248.88" />
              <mxPoint x="55" y="248.88" />
            </Array>
          </mxGeometry>
        </mxCell>
        <mxCell id="s_SscDxwih7RJKmsZcr1-3" value="Handle null values&amp;nbsp;" style="rounded=1;whiteSpace=wrap;html=1;fillColor=#ffe6cc;strokeColor=#d79b00;fontSize=12;fontStyle=1;strokeWidth=4;" vertex="1" parent="1">
          <mxGeometry x="140" y="148.88" width="70" height="50" as="geometry" />
        </mxCell>
        <mxCell id="s_SscDxwih7RJKmsZcr1-4" value="Train using XGBoost Model" style="rounded=1;whiteSpace=wrap;html=1;fillColor=#ffe6cc;strokeColor=#d79b00;fontStyle=1;strokeWidth=4;" vertex="1" parent="1">
          <mxGeometry x="1520" y="166.25" width="70" height="45" as="geometry" />
        </mxCell>
        <mxCell id="s_SscDxwih7RJKmsZcr1-98" value="" style="edgeStyle=orthogonalEdgeStyle;rounded=0;orthogonalLoop=1;jettySize=auto;html=1;fillColor=#dae8fc;strokeColor=#6c8ebf;" edge="1" parent="1" source="s_SscDxwih7RJKmsZcr1-5" target="s_SscDxwih7RJKmsZcr1-97">
          <mxGeometry relative="1" as="geometry">
            <Array as="points">
              <mxPoint x="1445" y="235" />
              <mxPoint x="1405" y="235" />
            </Array>
          </mxGeometry>
        </mxCell>
        <mxCell id="s_SscDxwih7RJKmsZcr1-100" style="edgeStyle=orthogonalEdgeStyle;rounded=0;orthogonalLoop=1;jettySize=auto;html=1;exitX=0.5;exitY=1;exitDx=0;exitDy=0;entryX=0.5;entryY=0;entryDx=0;entryDy=0;fillColor=#dae8fc;strokeColor=#6c8ebf;" edge="1" parent="1" source="s_SscDxwih7RJKmsZcr1-5" target="s_SscDxwih7RJKmsZcr1-99">
          <mxGeometry relative="1" as="geometry">
            <Array as="points">
              <mxPoint x="1445" y="235" />
              <mxPoint x="1505" y="235" />
            </Array>
          </mxGeometry>
        </mxCell>
        <mxCell id="s_SscDxwih7RJKmsZcr1-5" value="Dimensionality reduction" style="rounded=1;whiteSpace=wrap;html=1;fillColor=#dae8fc;strokeColor=#6c8ebf;fontStyle=1;strokeWidth=4;" vertex="1" parent="1">
          <mxGeometry x="1400" y="160" width="90" height="50" as="geometry" />
        </mxCell>
        <mxCell id="s_SscDxwih7RJKmsZcr1-58" value="" style="edgeStyle=orthogonalEdgeStyle;rounded=0;orthogonalLoop=1;jettySize=auto;html=1;exitX=0.5;exitY=1;exitDx=0;exitDy=0;fillColor=#e1d5e7;strokeColor=#9673a6;" edge="1" parent="1" source="s_SscDxwih7RJKmsZcr1-6" target="s_SscDxwih7RJKmsZcr1-57">
          <mxGeometry relative="1" as="geometry">
            <Array as="points">
              <mxPoint x="547" y="240" />
              <mxPoint x="437" y="240" />
            </Array>
          </mxGeometry>
        </mxCell>
        <mxCell id="s_SscDxwih7RJKmsZcr1-6" value="Encoding categorical values" style="rounded=1;whiteSpace=wrap;html=1;fillColor=#e1d5e7;strokeColor=#9673a6;fontStyle=1;strokeWidth=4;" vertex="1" parent="1">
          <mxGeometry x="504" y="150" width="86" height="50" as="geometry" />
        </mxCell>
        <mxCell id="s_SscDxwih7RJKmsZcr1-67" value="" style="edgeStyle=orthogonalEdgeStyle;rounded=0;orthogonalLoop=1;jettySize=auto;html=1;fillColor=#f8cecc;strokeColor=#b85450;" edge="1" parent="1" source="s_SscDxwih7RJKmsZcr1-7" target="s_SscDxwih7RJKmsZcr1-66">
          <mxGeometry relative="1" as="geometry">
            <Array as="points">
              <mxPoint x="735" y="265" />
              <mxPoint x="735" y="265" />
            </Array>
          </mxGeometry>
        </mxCell>
        <mxCell id="s_SscDxwih7RJKmsZcr1-7" value="Handle data imbalance" style="rounded=1;whiteSpace=wrap;html=1;fillColor=#f8cecc;strokeColor=#b85450;fontStyle=1;strokeWidth=4;" vertex="1" parent="1">
          <mxGeometry x="700" y="150" width="70" height="60" as="geometry" />
        </mxCell>
        <mxCell id="s_SscDxwih7RJKmsZcr1-83" value="" style="edgeStyle=orthogonalEdgeStyle;rounded=0;orthogonalLoop=1;jettySize=auto;html=1;fillColor=#fff2cc;strokeColor=#d6b656;" edge="1" parent="1" source="s_SscDxwih7RJKmsZcr1-8" target="s_SscDxwih7RJKmsZcr1-82">
          <mxGeometry relative="1" as="geometry" />
        </mxCell>
        <mxCell id="s_SscDxwih7RJKmsZcr1-87" style="edgeStyle=orthogonalEdgeStyle;rounded=0;orthogonalLoop=1;jettySize=auto;html=1;exitX=0.5;exitY=1;exitDx=0;exitDy=0;entryX=0.5;entryY=0;entryDx=0;entryDy=0;fillColor=#fff2cc;strokeColor=#d6b656;" edge="1" parent="1" source="s_SscDxwih7RJKmsZcr1-8" target="s_SscDxwih7RJKmsZcr1-85">
          <mxGeometry relative="1" as="geometry" />
        </mxCell>
        <mxCell id="s_SscDxwih7RJKmsZcr1-92" style="edgeStyle=orthogonalEdgeStyle;rounded=0;orthogonalLoop=1;jettySize=auto;html=1;exitX=0.5;exitY=1;exitDx=0;exitDy=0;entryX=0.5;entryY=0;entryDx=0;entryDy=0;fillColor=#fff2cc;strokeColor=#d6b656;" edge="1" parent="1" source="s_SscDxwih7RJKmsZcr1-8" target="s_SscDxwih7RJKmsZcr1-88">
          <mxGeometry relative="1" as="geometry" />
        </mxCell>
        <mxCell id="s_SscDxwih7RJKmsZcr1-93" style="edgeStyle=orthogonalEdgeStyle;rounded=0;orthogonalLoop=1;jettySize=auto;html=1;exitX=0.5;exitY=1;exitDx=0;exitDy=0;fillColor=#fff2cc;strokeColor=#d6b656;" edge="1" parent="1" source="s_SscDxwih7RJKmsZcr1-8" target="s_SscDxwih7RJKmsZcr1-89">
          <mxGeometry relative="1" as="geometry" />
        </mxCell>
        <mxCell id="s_SscDxwih7RJKmsZcr1-94" style="edgeStyle=orthogonalEdgeStyle;rounded=0;orthogonalLoop=1;jettySize=auto;html=1;exitX=0.5;exitY=1;exitDx=0;exitDy=0;entryX=0.5;entryY=0;entryDx=0;entryDy=0;fillColor=#fff2cc;strokeColor=#d6b656;" edge="1" parent="1" source="s_SscDxwih7RJKmsZcr1-8" target="s_SscDxwih7RJKmsZcr1-90">
          <mxGeometry relative="1" as="geometry" />
        </mxCell>
        <mxCell id="s_SscDxwih7RJKmsZcr1-96" style="edgeStyle=orthogonalEdgeStyle;rounded=0;orthogonalLoop=1;jettySize=auto;html=1;exitX=0.5;exitY=1;exitDx=0;exitDy=0;entryX=0.5;entryY=0;entryDx=0;entryDy=0;fillColor=#fff2cc;strokeColor=#d6b656;" edge="1" parent="1" source="s_SscDxwih7RJKmsZcr1-8" target="s_SscDxwih7RJKmsZcr1-95">
          <mxGeometry relative="1" as="geometry" />
        </mxCell>
        <mxCell id="s_SscDxwih7RJKmsZcr1-8" value="Feature selection" style="rounded=1;whiteSpace=wrap;html=1;fillColor=#fff2cc;strokeColor=#d6b656;fontStyle=1;strokeWidth=4;" vertex="1" parent="1">
          <mxGeometry x="920" y="148.88" width="60" height="50" as="geometry" />
        </mxCell>
        <mxCell id="s_SscDxwih7RJKmsZcr1-11" value="Apply needed processing to test data" style="rounded=1;whiteSpace=wrap;html=1;fillColor=#f8cecc;strokeColor=#b85450;fontStyle=1;strokeWidth=4;" vertex="1" parent="1">
          <mxGeometry x="1725" y="155" width="90" height="60" as="geometry" />
        </mxCell>
        <mxCell id="s_SscDxwih7RJKmsZcr1-12" value="Test" style="rounded=1;whiteSpace=wrap;html=1;fillColor=#fff2cc;strokeColor=#d6b656;fontStyle=1;strokeWidth=4;" vertex="1" parent="1">
          <mxGeometry x="1840" y="173.75" width="40" height="30" as="geometry" />
        </mxCell>
        <mxCell id="s_SscDxwih7RJKmsZcr1-22" value="&lt;div&gt;train_val: used for&amp;nbsp;&lt;/div&gt;&lt;div&gt;training and&amp;nbsp;&lt;/div&gt;&lt;div&gt;cross-validation&amp;nbsp;&lt;/div&gt;" style="whiteSpace=wrap;html=1;rounded=1;fillColor=#dae8fc;strokeColor=#6c8ebf;" vertex="1" parent="1">
          <mxGeometry x="-65" y="240" width="110" height="50" as="geometry" />
        </mxCell>
        <mxCell id="s_SscDxwih7RJKmsZcr1-26" value="drop null values" style="whiteSpace=wrap;html=1;rounded=1;fillColor=#ffe6cc;strokeColor=#d79b00;" vertex="1" parent="1">
          <mxGeometry x="20" y="320" width="70" height="40" as="geometry" />
        </mxCell>
        <mxCell id="s_SscDxwih7RJKmsZcr1-36" value="" style="edgeStyle=orthogonalEdgeStyle;rounded=0;orthogonalLoop=1;jettySize=auto;html=1;fillColor=#ffe6cc;strokeColor=#d79b00;" edge="1" parent="1" source="s_SscDxwih7RJKmsZcr1-31" target="s_SscDxwih7RJKmsZcr1-35">
          <mxGeometry relative="1" as="geometry">
            <Array as="points">
              <mxPoint x="135" y="400" />
              <mxPoint x="68" y="400" />
            </Array>
          </mxGeometry>
        </mxCell>
        <mxCell id="s_SscDxwih7RJKmsZcr1-42" value="" style="edgeStyle=orthogonalEdgeStyle;rounded=0;orthogonalLoop=1;jettySize=auto;html=1;entryX=0.5;entryY=0;entryDx=0;entryDy=0;fillColor=#ffe6cc;strokeColor=#d79b00;" edge="1" parent="1" source="s_SscDxwih7RJKmsZcr1-31" target="s_SscDxwih7RJKmsZcr1-37">
          <mxGeometry relative="1" as="geometry">
            <Array as="points">
              <mxPoint x="135" y="405" />
            </Array>
          </mxGeometry>
        </mxCell>
        <mxCell id="s_SscDxwih7RJKmsZcr1-44" value="" style="edgeStyle=orthogonalEdgeStyle;rounded=0;orthogonalLoop=1;jettySize=auto;html=1;entryX=0.5;entryY=0;entryDx=0;entryDy=0;fillColor=#ffe6cc;strokeColor=#d79b00;" edge="1" parent="1" source="s_SscDxwih7RJKmsZcr1-31" target="s_SscDxwih7RJKmsZcr1-43">
          <mxGeometry relative="1" as="geometry">
            <mxPoint x="210" y="400" as="targetPoint" />
            <Array as="points">
              <mxPoint x="135" y="400" />
              <mxPoint x="220" y="400" />
            </Array>
          </mxGeometry>
        </mxCell>
        <mxCell id="s_SscDxwih7RJKmsZcr1-31" value="imputation" style="whiteSpace=wrap;html=1;rounded=1;fillColor=#ffe6cc;strokeColor=#d79b00;" vertex="1" parent="1">
          <mxGeometry x="102.5" y="325" width="65" height="35" as="geometry" />
        </mxCell>
        <mxCell id="s_SscDxwih7RJKmsZcr1-32" value="" style="edgeStyle=orthogonalEdgeStyle;rounded=0;orthogonalLoop=1;jettySize=auto;html=1;entryX=0.5;entryY=0;entryDx=0;entryDy=0;exitX=0.5;exitY=1;exitDx=0;exitDy=0;fillColor=#ffe6cc;strokeColor=#d79b00;" edge="1" parent="1" source="s_SscDxwih7RJKmsZcr1-3" target="s_SscDxwih7RJKmsZcr1-31">
          <mxGeometry relative="1" as="geometry">
            <mxPoint x="195" y="208.88" as="sourcePoint" />
            <mxPoint x="115" y="323.88" as="targetPoint" />
            <Array as="points">
              <mxPoint x="175" y="248.88" />
              <mxPoint x="135" y="248.88" />
            </Array>
          </mxGeometry>
        </mxCell>
        <mxCell id="s_SscDxwih7RJKmsZcr1-35" value="mean" style="whiteSpace=wrap;html=1;rounded=1;fillColor=#ffe6cc;strokeColor=#d79b00;" vertex="1" parent="1">
          <mxGeometry x="45" y="440" width="45" height="35" as="geometry" />
        </mxCell>
        <mxCell id="s_SscDxwih7RJKmsZcr1-37" value="median" style="whiteSpace=wrap;html=1;rounded=1;fillColor=#ffe6cc;strokeColor=#d79b00;" vertex="1" parent="1">
          <mxGeometry x="105" y="440" width="60" height="35" as="geometry" />
        </mxCell>
        <mxCell id="s_SscDxwih7RJKmsZcr1-43" value="most_frequent" style="whiteSpace=wrap;html=1;rounded=1;fillColor=#ffe6cc;strokeColor=#d79b00;" vertex="1" parent="1">
          <mxGeometry x="175" y="442.5" width="90" height="30" as="geometry" />
        </mxCell>
        <mxCell id="s_SscDxwih7RJKmsZcr1-46" style="edgeStyle=orthogonalEdgeStyle;rounded=0;orthogonalLoop=1;jettySize=auto;html=1;exitX=0.5;exitY=1;exitDx=0;exitDy=0;fillColor=#ffe6cc;strokeColor=#d79b00;" edge="1" parent="1" source="s_SscDxwih7RJKmsZcr1-43" target="s_SscDxwih7RJKmsZcr1-43">
          <mxGeometry relative="1" as="geometry" />
        </mxCell>
        <mxCell id="s_SscDxwih7RJKmsZcr1-47" style="edgeStyle=orthogonalEdgeStyle;rounded=0;orthogonalLoop=1;jettySize=auto;html=1;exitX=0.5;exitY=1;exitDx=0;exitDy=0;fillColor=#ffe6cc;strokeColor=#d79b00;" edge="1" parent="1" source="s_SscDxwih7RJKmsZcr1-37" target="s_SscDxwih7RJKmsZcr1-37">
          <mxGeometry relative="1" as="geometry" />
        </mxCell>
        <mxCell id="s_SscDxwih7RJKmsZcr1-49" value="" style="edgeStyle=orthogonalEdgeStyle;rounded=0;orthogonalLoop=1;jettySize=auto;html=1;entryX=0.5;entryY=0;entryDx=0;entryDy=0;exitX=0.5;exitY=1;exitDx=0;exitDy=0;fillColor=#ffe6cc;strokeColor=#d79b00;" edge="1" parent="1" target="s_SscDxwih7RJKmsZcr1-50" source="s_SscDxwih7RJKmsZcr1-3">
          <mxGeometry relative="1" as="geometry">
            <mxPoint x="365" y="198.88" as="sourcePoint" />
            <mxPoint x="330" y="383.88" as="targetPoint" />
            <Array as="points">
              <mxPoint x="175" y="248.88" />
              <mxPoint x="290" y="248.88" />
            </Array>
          </mxGeometry>
        </mxCell>
        <mxCell id="s_SscDxwih7RJKmsZcr1-50" value="prediction (using DecisionTree)" style="whiteSpace=wrap;html=1;rounded=1;fillColor=#ffe6cc;strokeColor=#d79b00;" vertex="1" parent="1">
          <mxGeometry x="240" y="320" width="100" height="50" as="geometry" />
        </mxCell>
        <mxCell id="s_SscDxwih7RJKmsZcr1-53" value="" style="edgeStyle=orthogonalEdgeStyle;rounded=0;orthogonalLoop=1;jettySize=auto;html=1;entryX=0.5;entryY=0;entryDx=0;entryDy=0;exitX=0.5;exitY=1;exitDx=0;exitDy=0;fillColor=#ffe6cc;strokeColor=#d79b00;" edge="1" parent="1" target="s_SscDxwih7RJKmsZcr1-54" source="s_SscDxwih7RJKmsZcr1-3">
          <mxGeometry relative="1" as="geometry">
            <mxPoint x="300" y="198.88" as="sourcePoint" />
            <mxPoint x="445" y="383.88" as="targetPoint" />
            <Array as="points">
              <mxPoint x="175" y="248.88" />
              <mxPoint x="382" y="248.88" />
            </Array>
          </mxGeometry>
        </mxCell>
        <mxCell id="s_SscDxwih7RJKmsZcr1-54" value="KNN" style="whiteSpace=wrap;html=1;rounded=1;fillColor=#ffe6cc;strokeColor=#d79b00;" vertex="1" parent="1">
          <mxGeometry x="355" y="320" width="55" height="30" as="geometry" />
        </mxCell>
        <mxCell id="s_SscDxwih7RJKmsZcr1-102" value="" style="edgeStyle=orthogonalEdgeStyle;rounded=0;orthogonalLoop=1;jettySize=auto;html=1;fillColor=#e1d5e7;strokeColor=#9673a6;" edge="1" parent="1" source="s_SscDxwih7RJKmsZcr1-55" target="s_SscDxwih7RJKmsZcr1-101">
          <mxGeometry relative="1" as="geometry" />
        </mxCell>
        <mxCell id="s_SscDxwih7RJKmsZcr1-55" value="Evaluate" style="rounded=1;whiteSpace=wrap;html=1;fillColor=#e1d5e7;strokeColor=#9673a6;fontStyle=1;strokeWidth=4;" vertex="1" parent="1">
          <mxGeometry x="1630" y="163.75" width="70" height="45" as="geometry" />
        </mxCell>
        <mxCell id="s_SscDxwih7RJKmsZcr1-57" value="one-hot encoding" style="whiteSpace=wrap;html=1;rounded=1;fillColor=#e1d5e7;strokeColor=#9673a6;" vertex="1" parent="1">
          <mxGeometry x="400" y="270" width="74" height="40" as="geometry" />
        </mxCell>
        <mxCell id="s_SscDxwih7RJKmsZcr1-60" value="" style="edgeStyle=orthogonalEdgeStyle;rounded=0;orthogonalLoop=1;jettySize=auto;html=1;exitX=0.5;exitY=1;exitDx=0;exitDy=0;fillColor=#e1d5e7;strokeColor=#9673a6;" edge="1" parent="1" target="s_SscDxwih7RJKmsZcr1-61" source="s_SscDxwih7RJKmsZcr1-6">
          <mxGeometry relative="1" as="geometry">
            <mxPoint x="561" y="202.5" as="sourcePoint" />
            <Array as="points">
              <mxPoint x="547" y="240" />
              <mxPoint x="514" y="240" />
            </Array>
          </mxGeometry>
        </mxCell>
        <mxCell id="s_SscDxwih7RJKmsZcr1-61" value="label encoding" style="whiteSpace=wrap;html=1;rounded=1;fillColor=#e1d5e7;strokeColor=#9673a6;" vertex="1" parent="1">
          <mxGeometry x="484" y="270" width="60" height="40" as="geometry" />
        </mxCell>
        <mxCell id="s_SscDxwih7RJKmsZcr1-62" value="" style="edgeStyle=orthogonalEdgeStyle;rounded=0;orthogonalLoop=1;jettySize=auto;html=1;exitX=0.5;exitY=1;exitDx=0;exitDy=0;fillColor=#e1d5e7;strokeColor=#9673a6;" edge="1" parent="1" target="s_SscDxwih7RJKmsZcr1-63" source="s_SscDxwih7RJKmsZcr1-6">
          <mxGeometry relative="1" as="geometry">
            <mxPoint x="544" y="207.5" as="sourcePoint" />
            <Array as="points">
              <mxPoint x="547" y="240" />
              <mxPoint x="584" y="240" />
            </Array>
          </mxGeometry>
        </mxCell>
        <mxCell id="s_SscDxwih7RJKmsZcr1-63" value="frequency encoding" style="whiteSpace=wrap;html=1;rounded=1;fillColor=#e1d5e7;strokeColor=#9673a6;" vertex="1" parent="1">
          <mxGeometry x="554" y="270" width="60" height="40" as="geometry" />
        </mxCell>
        <mxCell id="s_SscDxwih7RJKmsZcr1-64" value="" style="edgeStyle=orthogonalEdgeStyle;rounded=0;orthogonalLoop=1;jettySize=auto;html=1;exitX=0.5;exitY=1;exitDx=0;exitDy=0;fillColor=#e1d5e7;strokeColor=#9673a6;" edge="1" parent="1" target="s_SscDxwih7RJKmsZcr1-65" source="s_SscDxwih7RJKmsZcr1-6">
          <mxGeometry relative="1" as="geometry">
            <mxPoint x="624" y="208.75" as="sourcePoint" />
            <Array as="points">
              <mxPoint x="547" y="240" />
              <mxPoint x="654" y="240" />
            </Array>
          </mxGeometry>
        </mxCell>
        <mxCell id="s_SscDxwih7RJKmsZcr1-65" value="target encoding" style="whiteSpace=wrap;html=1;rounded=1;fillColor=#e1d5e7;strokeColor=#9673a6;" vertex="1" parent="1">
          <mxGeometry x="624" y="270" width="60" height="40" as="geometry" />
        </mxCell>
        <mxCell id="s_SscDxwih7RJKmsZcr1-69" value="" style="edgeStyle=orthogonalEdgeStyle;rounded=0;orthogonalLoop=1;jettySize=auto;html=1;entryX=0.5;entryY=0;entryDx=0;entryDy=0;fillColor=#f8cecc;strokeColor=#b85450;" edge="1" parent="1" source="s_SscDxwih7RJKmsZcr1-66" target="s_SscDxwih7RJKmsZcr1-68">
          <mxGeometry relative="1" as="geometry">
            <mxPoint x="671" y="365" as="targetPoint" />
            <Array as="points">
              <mxPoint x="735" y="325" />
              <mxPoint x="645" y="325" />
            </Array>
          </mxGeometry>
        </mxCell>
        <mxCell id="s_SscDxwih7RJKmsZcr1-75" style="edgeStyle=orthogonalEdgeStyle;rounded=0;orthogonalLoop=1;jettySize=auto;html=1;exitX=0.5;exitY=1;exitDx=0;exitDy=0;entryX=0.5;entryY=0;entryDx=0;entryDy=0;fillColor=#f8cecc;strokeColor=#b85450;" edge="1" parent="1" source="s_SscDxwih7RJKmsZcr1-66" target="s_SscDxwih7RJKmsZcr1-74">
          <mxGeometry relative="1" as="geometry">
            <Array as="points">
              <mxPoint x="735" y="325" />
              <mxPoint x="830" y="325" />
            </Array>
          </mxGeometry>
        </mxCell>
        <mxCell id="s_SscDxwih7RJKmsZcr1-66" value="Resampling" style="whiteSpace=wrap;html=1;rounded=1;fillColor=#f8cecc;strokeColor=#b85450;" vertex="1" parent="1">
          <mxGeometry x="695" y="245" width="80" height="40" as="geometry" />
        </mxCell>
        <mxCell id="s_SscDxwih7RJKmsZcr1-79" value="" style="edgeStyle=orthogonalEdgeStyle;rounded=0;orthogonalLoop=1;jettySize=auto;html=1;exitX=0.5;exitY=1;exitDx=0;exitDy=0;fillColor=#f8cecc;strokeColor=#b85450;" edge="1" parent="1" source="s_SscDxwih7RJKmsZcr1-68" target="s_SscDxwih7RJKmsZcr1-78">
          <mxGeometry relative="1" as="geometry">
            <mxPoint x="645" y="435" as="sourcePoint" />
          </mxGeometry>
        </mxCell>
        <mxCell id="s_SscDxwih7RJKmsZcr1-68" value="Undersampling" style="whiteSpace=wrap;html=1;rounded=1;fillColor=#f8cecc;strokeColor=#b85450;" vertex="1" parent="1">
          <mxGeometry x="600" y="365" width="90" height="30" as="geometry" />
        </mxCell>
        <mxCell id="s_SscDxwih7RJKmsZcr1-72" value="" style="edgeStyle=orthogonalEdgeStyle;rounded=0;orthogonalLoop=1;jettySize=auto;html=1;exitX=0.5;exitY=1;exitDx=0;exitDy=0;fillColor=#f8cecc;strokeColor=#b85450;" edge="1" parent="1" target="s_SscDxwih7RJKmsZcr1-73" source="s_SscDxwih7RJKmsZcr1-66">
          <mxGeometry relative="1" as="geometry">
            <mxPoint x="852.5" y="325" as="sourcePoint" />
            <Array as="points">
              <mxPoint x="735" y="305" />
              <mxPoint x="735" y="305" />
            </Array>
          </mxGeometry>
        </mxCell>
        <mxCell id="s_SscDxwih7RJKmsZcr1-77" value="" style="edgeStyle=orthogonalEdgeStyle;rounded=0;orthogonalLoop=1;jettySize=auto;html=1;fillColor=#f8cecc;strokeColor=#b85450;" edge="1" parent="1" source="s_SscDxwih7RJKmsZcr1-73" target="s_SscDxwih7RJKmsZcr1-76">
          <mxGeometry relative="1" as="geometry" />
        </mxCell>
        <mxCell id="s_SscDxwih7RJKmsZcr1-73" value="Oversampling" style="whiteSpace=wrap;html=1;rounded=1;fillColor=#f8cecc;strokeColor=#b85450;" vertex="1" parent="1">
          <mxGeometry x="700" y="365" width="80" height="30" as="geometry" />
        </mxCell>
        <mxCell id="s_SscDxwih7RJKmsZcr1-81" value="" style="edgeStyle=orthogonalEdgeStyle;rounded=0;orthogonalLoop=1;jettySize=auto;html=1;fillColor=#f8cecc;strokeColor=#b85450;" edge="1" parent="1" source="s_SscDxwih7RJKmsZcr1-74" target="s_SscDxwih7RJKmsZcr1-80">
          <mxGeometry relative="1" as="geometry" />
        </mxCell>
        <mxCell id="s_SscDxwih7RJKmsZcr1-74" value="Combination of both" style="whiteSpace=wrap;html=1;rounded=1;fillColor=#f8cecc;strokeColor=#b85450;" vertex="1" parent="1">
          <mxGeometry x="790" y="365" width="80" height="30" as="geometry" />
        </mxCell>
        <mxCell id="s_SscDxwih7RJKmsZcr1-76" value="SMOTE" style="whiteSpace=wrap;html=1;rounded=1;fillColor=#f8cecc;strokeColor=#b85450;" vertex="1" parent="1">
          <mxGeometry x="710" y="435" width="60" height="35" as="geometry" />
        </mxCell>
        <mxCell id="s_SscDxwih7RJKmsZcr1-78" value="ENN" style="whiteSpace=wrap;html=1;rounded=1;fillColor=#f8cecc;strokeColor=#b85450;" vertex="1" parent="1">
          <mxGeometry x="617.5" y="435" width="55" height="25" as="geometry" />
        </mxCell>
        <mxCell id="s_SscDxwih7RJKmsZcr1-80" value="SMOTEENN" style="whiteSpace=wrap;html=1;rounded=1;fillColor=#f8cecc;strokeColor=#b85450;" vertex="1" parent="1">
          <mxGeometry x="790" y="435" width="80" height="35" as="geometry" />
        </mxCell>
        <mxCell id="s_SscDxwih7RJKmsZcr1-82" value="Variance thresholding&amp;nbsp;" style="whiteSpace=wrap;html=1;rounded=1;fillColor=#fff2cc;strokeColor=#d6b656;" vertex="1" parent="1">
          <mxGeometry x="840" y="275.13" width="80" height="47.5" as="geometry" />
        </mxCell>
        <mxCell id="s_SscDxwih7RJKmsZcr1-85" value="Recursive feature elimination (RFE)" style="whiteSpace=wrap;html=1;rounded=1;fillColor=#fff2cc;strokeColor=#d6b656;" vertex="1" parent="1">
          <mxGeometry x="930" y="275.13" width="80" height="73.75" as="geometry" />
        </mxCell>
        <mxCell id="s_SscDxwih7RJKmsZcr1-88" value="Mutual Information and Genetic Algorithm" style="whiteSpace=wrap;html=1;rounded=1;fillColor=#fff2cc;strokeColor=#d6b656;" vertex="1" parent="1">
          <mxGeometry x="1020" y="275.13" width="80" height="73.75" as="geometry" />
        </mxCell>
        <mxCell id="s_SscDxwih7RJKmsZcr1-89" value="Singular Value Decomposition Entropy (SVDE) and Extreme Value Distribution (EVD)&amp;nbsp;" style="whiteSpace=wrap;html=1;rounded=1;fillColor=#fff2cc;strokeColor=#d6b656;" vertex="1" parent="1">
          <mxGeometry x="1110" y="275.13" width="100" height="113.75" as="geometry" />
        </mxCell>
        <mxCell id="s_SscDxwih7RJKmsZcr1-90" value="Minimum Redundancy Maximum Relevance (mRMR)" style="whiteSpace=wrap;html=1;rounded=1;fillColor=#fff2cc;strokeColor=#d6b656;" vertex="1" parent="1">
          <mxGeometry x="1220" y="275.13" width="90" height="83.75" as="geometry" />
        </mxCell>
        <mxCell id="s_SscDxwih7RJKmsZcr1-95" value="Feature ranking" style="whiteSpace=wrap;html=1;rounded=1;fillColor=#fff2cc;strokeColor=#d6b656;" vertex="1" parent="1">
          <mxGeometry x="1320" y="275.13" width="70" height="43.75" as="geometry" />
        </mxCell>
        <mxCell id="s_SscDxwih7RJKmsZcr1-97" value="Principal Component Analysis (PCA)" style="whiteSpace=wrap;html=1;rounded=1;fillColor=#dae8fc;strokeColor=#6c8ebf;" vertex="1" parent="1">
          <mxGeometry x="1360" y="331.25" width="90" height="60" as="geometry" />
        </mxCell>
        <mxCell id="s_SscDxwih7RJKmsZcr1-99" value="Linear Discriminant Analysis (LDA)" style="whiteSpace=wrap;html=1;rounded=1;fillColor=#dae8fc;strokeColor=#6c8ebf;" vertex="1" parent="1">
          <mxGeometry x="1460" y="330" width="90" height="60" as="geometry" />
        </mxCell>
        <mxCell id="s_SscDxwih7RJKmsZcr1-101" value="Cross-validation accuracy after grid search&amp;nbsp;" style="whiteSpace=wrap;html=1;rounded=1;fillColor=#e1d5e7;strokeColor=#9673a6;" vertex="1" parent="1">
          <mxGeometry x="1605" y="271.25" width="120" height="60" as="geometry" />
        </mxCell>
        <mxCell id="s_SscDxwih7RJKmsZcr1-104" value="&lt;b&gt;&lt;font style=&quot;font-size: 15px;&quot;&gt;1&lt;/font&gt;&lt;/b&gt;" style="ellipse;whiteSpace=wrap;html=1;" vertex="1" parent="1">
          <mxGeometry x="-130" y="120" width="30" height="30" as="geometry" />
        </mxCell>
        <mxCell id="s_SscDxwih7RJKmsZcr1-107" value="&lt;b&gt;&lt;font style=&quot;font-size: 15px;&quot;&gt;2&lt;/font&gt;&lt;/b&gt;" style="ellipse;whiteSpace=wrap;html=1;" vertex="1" parent="1">
          <mxGeometry x="-25" y="110" width="30" height="30" as="geometry" />
        </mxCell>
        <mxCell id="s_SscDxwih7RJKmsZcr1-108" value="&lt;b&gt;&lt;font style=&quot;font-size: 15px;&quot;&gt;3&lt;/font&gt;&lt;/b&gt;" style="ellipse;whiteSpace=wrap;html=1;" vertex="1" parent="1">
          <mxGeometry x="160" y="110" width="30" height="30" as="geometry" />
        </mxCell>
        <mxCell id="s_SscDxwih7RJKmsZcr1-109" value="&lt;b&gt;&lt;font style=&quot;font-size: 15px;&quot;&gt;4&lt;/font&gt;&lt;/b&gt;" style="ellipse;whiteSpace=wrap;html=1;" vertex="1" parent="1">
          <mxGeometry x="532" y="110" width="30" height="30" as="geometry" />
        </mxCell>
        <mxCell id="s_SscDxwih7RJKmsZcr1-110" value="&lt;b&gt;&lt;font style=&quot;font-size: 15px;&quot;&gt;5&lt;/font&gt;&lt;/b&gt;" style="ellipse;whiteSpace=wrap;html=1;" vertex="1" parent="1">
          <mxGeometry x="720" y="110" width="30" height="30" as="geometry" />
        </mxCell>
        <mxCell id="s_SscDxwih7RJKmsZcr1-111" value="&lt;b&gt;&lt;font style=&quot;font-size: 15px;&quot;&gt;6&lt;/font&gt;&lt;/b&gt;" style="ellipse;whiteSpace=wrap;html=1;" vertex="1" parent="1">
          <mxGeometry x="935" y="110" width="30" height="30" as="geometry" />
        </mxCell>
        <mxCell id="s_SscDxwih7RJKmsZcr1-112" value="&lt;b&gt;&lt;font style=&quot;font-size: 15px;&quot;&gt;7&lt;/font&gt;&lt;/b&gt;" style="ellipse;whiteSpace=wrap;html=1;" vertex="1" parent="1">
          <mxGeometry x="1430" y="120" width="30" height="30" as="geometry" />
        </mxCell>
        <mxCell id="s_SscDxwih7RJKmsZcr1-113" value="&lt;b&gt;&lt;font style=&quot;font-size: 15px;&quot;&gt;8&lt;/font&gt;&lt;/b&gt;" style="ellipse;whiteSpace=wrap;html=1;" vertex="1" parent="1">
          <mxGeometry x="1540" y="125" width="30" height="30" as="geometry" />
        </mxCell>
        <mxCell id="s_SscDxwih7RJKmsZcr1-114" value="&lt;b&gt;&lt;font style=&quot;font-size: 15px;&quot;&gt;9&lt;/font&gt;&lt;/b&gt;" style="ellipse;whiteSpace=wrap;html=1;" vertex="1" parent="1">
          <mxGeometry x="1650" y="125" width="30" height="30" as="geometry" />
        </mxCell>
        <mxCell id="s_SscDxwih7RJKmsZcr1-115" value="&lt;b&gt;&lt;font style=&quot;font-size: 15px;&quot;&gt;10&lt;/font&gt;&lt;/b&gt;" style="ellipse;whiteSpace=wrap;html=1;" vertex="1" parent="1">
          <mxGeometry x="1755" y="110" width="30" height="30" as="geometry" />
        </mxCell>
        <mxCell id="s_SscDxwih7RJKmsZcr1-116" value="&lt;b&gt;&lt;font style=&quot;font-size: 15px;&quot;&gt;11&lt;/font&gt;&lt;/b&gt;" style="ellipse;whiteSpace=wrap;html=1;" vertex="1" parent="1">
          <mxGeometry x="1845" y="133.75" width="30" height="30" as="geometry" />
        </mxCell>
        <mxCell id="s_SscDxwih7RJKmsZcr1-141" value="Scenarios" style="shape=table;startSize=30;container=1;collapsible=0;childLayout=tableLayout;strokeWidth=2;rounded=1;fontStyle=1;fontSize=14;align=center;" vertex="1" parent="1">
          <mxGeometry x="-130" y="520" width="520" height="380" as="geometry" />
        </mxCell>
        <mxCell id="s_SscDxwih7RJKmsZcr1-142" value="" style="shape=tableRow;horizontal=0;startSize=0;swimlaneHead=0;swimlaneBody=0;strokeColor=inherit;top=0;left=0;bottom=0;right=0;collapsible=0;dropTarget=0;fillColor=none;points=[[0,0.5],[1,0.5]];portConstraint=eastwest;" vertex="1" parent="s_SscDxwih7RJKmsZcr1-141">
          <mxGeometry y="30" width="520" height="50" as="geometry" />
        </mxCell>
        <mxCell id="s_SscDxwih7RJKmsZcr1-143" value="&lt;font style=&quot;font-size: 25px;&quot;&gt;1&amp;nbsp;→ 2 → 3 → 4 → 6 → 8 → 9 → 10 → 11&lt;/font&gt;" style="shape=partialRectangle;html=1;whiteSpace=wrap;connectable=0;strokeColor=inherit;overflow=hidden;fillColor=none;top=0;left=0;bottom=0;right=0;pointerEvents=1;" vertex="1" parent="s_SscDxwih7RJKmsZcr1-142">
          <mxGeometry width="520" height="50" as="geometry">
            <mxRectangle width="520" height="50" as="alternateBounds" />
          </mxGeometry>
        </mxCell>
        <mxCell id="s_SscDxwih7RJKmsZcr1-144" value="" style="shape=tableRow;horizontal=0;startSize=0;swimlaneHead=0;swimlaneBody=0;strokeColor=inherit;top=0;left=0;bottom=0;right=0;collapsible=0;dropTarget=0;fillColor=none;points=[[0,0.5],[1,0.5]];portConstraint=eastwest;" vertex="1" parent="s_SscDxwih7RJKmsZcr1-141">
          <mxGeometry y="80" width="520" height="50" as="geometry" />
        </mxCell>
        <mxCell id="s_SscDxwih7RJKmsZcr1-145" value="" style="shape=partialRectangle;html=1;whiteSpace=wrap;connectable=0;strokeColor=inherit;overflow=hidden;fillColor=none;top=0;left=0;bottom=0;right=0;pointerEvents=1;" vertex="1" parent="s_SscDxwih7RJKmsZcr1-144">
          <mxGeometry width="520" height="50" as="geometry">
            <mxRectangle width="520" height="50" as="alternateBounds" />
          </mxGeometry>
        </mxCell>
        <mxCell id="s_SscDxwih7RJKmsZcr1-146" value="" style="shape=tableRow;horizontal=0;startSize=0;swimlaneHead=0;swimlaneBody=0;strokeColor=inherit;top=0;left=0;bottom=0;right=0;collapsible=0;dropTarget=0;fillColor=none;points=[[0,0.5],[1,0.5]];portConstraint=eastwest;" vertex="1" parent="s_SscDxwih7RJKmsZcr1-141">
          <mxGeometry y="130" width="520" height="50" as="geometry" />
        </mxCell>
        <mxCell id="s_SscDxwih7RJKmsZcr1-147" value="" style="shape=partialRectangle;html=1;whiteSpace=wrap;connectable=0;strokeColor=inherit;overflow=hidden;fillColor=none;top=0;left=0;bottom=0;right=0;pointerEvents=1;" vertex="1" parent="s_SscDxwih7RJKmsZcr1-146">
          <mxGeometry width="520" height="50" as="geometry">
            <mxRectangle width="520" height="50" as="alternateBounds" />
          </mxGeometry>
        </mxCell>
        <mxCell id="s_SscDxwih7RJKmsZcr1-148" value="" style="shape=tableRow;horizontal=0;startSize=0;swimlaneHead=0;swimlaneBody=0;strokeColor=inherit;top=0;left=0;bottom=0;right=0;collapsible=0;dropTarget=0;fillColor=none;points=[[0,0.5],[1,0.5]];portConstraint=eastwest;" vertex="1" parent="s_SscDxwih7RJKmsZcr1-141">
          <mxGeometry y="180" width="520" height="50" as="geometry" />
        </mxCell>
        <mxCell id="s_SscDxwih7RJKmsZcr1-149" value="" style="shape=partialRectangle;html=1;whiteSpace=wrap;connectable=0;strokeColor=inherit;overflow=hidden;fillColor=none;top=0;left=0;bottom=0;right=0;pointerEvents=1;" vertex="1" parent="s_SscDxwih7RJKmsZcr1-148">
          <mxGeometry width="520" height="50" as="geometry">
            <mxRectangle width="520" height="50" as="alternateBounds" />
          </mxGeometry>
        </mxCell>
        <mxCell id="s_SscDxwih7RJKmsZcr1-150" value="" style="shape=tableRow;horizontal=0;startSize=0;swimlaneHead=0;swimlaneBody=0;strokeColor=inherit;top=0;left=0;bottom=0;right=0;collapsible=0;dropTarget=0;fillColor=none;points=[[0,0.5],[1,0.5]];portConstraint=eastwest;" vertex="1" parent="s_SscDxwih7RJKmsZcr1-141">
          <mxGeometry y="230" width="520" height="50" as="geometry" />
        </mxCell>
        <mxCell id="s_SscDxwih7RJKmsZcr1-151" value="" style="shape=partialRectangle;html=1;whiteSpace=wrap;connectable=0;strokeColor=inherit;overflow=hidden;fillColor=none;top=0;left=0;bottom=0;right=0;pointerEvents=1;" vertex="1" parent="s_SscDxwih7RJKmsZcr1-150">
          <mxGeometry width="520" height="50" as="geometry">
            <mxRectangle width="520" height="50" as="alternateBounds" />
          </mxGeometry>
        </mxCell>
        <mxCell id="s_SscDxwih7RJKmsZcr1-152" value="" style="shape=tableRow;horizontal=0;startSize=0;swimlaneHead=0;swimlaneBody=0;strokeColor=inherit;top=0;left=0;bottom=0;right=0;collapsible=0;dropTarget=0;fillColor=none;points=[[0,0.5],[1,0.5]];portConstraint=eastwest;" vertex="1" parent="s_SscDxwih7RJKmsZcr1-141">
          <mxGeometry y="280" width="520" height="50" as="geometry" />
        </mxCell>
        <mxCell id="s_SscDxwih7RJKmsZcr1-153" value="" style="shape=partialRectangle;html=1;whiteSpace=wrap;connectable=0;strokeColor=inherit;overflow=hidden;fillColor=none;top=0;left=0;bottom=0;right=0;pointerEvents=1;" vertex="1" parent="s_SscDxwih7RJKmsZcr1-152">
          <mxGeometry width="520" height="50" as="geometry">
            <mxRectangle width="520" height="50" as="alternateBounds" />
          </mxGeometry>
        </mxCell>
        <mxCell id="s_SscDxwih7RJKmsZcr1-154" value="" style="shape=tableRow;horizontal=0;startSize=0;swimlaneHead=0;swimlaneBody=0;strokeColor=inherit;top=0;left=0;bottom=0;right=0;collapsible=0;dropTarget=0;fillColor=none;points=[[0,0.5],[1,0.5]];portConstraint=eastwest;" vertex="1" parent="s_SscDxwih7RJKmsZcr1-141">
          <mxGeometry y="330" width="520" height="50" as="geometry" />
        </mxCell>
        <mxCell id="s_SscDxwih7RJKmsZcr1-155" value="" style="shape=partialRectangle;html=1;whiteSpace=wrap;connectable=0;strokeColor=inherit;overflow=hidden;fillColor=none;top=0;left=0;bottom=0;right=0;pointerEvents=1;" vertex="1" parent="s_SscDxwih7RJKmsZcr1-154">
          <mxGeometry width="520" height="50" as="geometry">
            <mxRectangle width="520" height="50" as="alternateBounds" />
          </mxGeometry>
        </mxCell>
      </root>
    </mxGraphModel>
  </diagram>
</mxfile>
